<svg width="66" height="67" viewBox="0 0 66 67" fill="none" xmlns="http://www.w3.org/2000/svg">
<path d="M0.461304 16.9141C0.461304 8.0775 7.62475 0.914062 16.4613 0.914062H49.8484C58.6849 0.914062 65.8483 8.07751 65.8483 16.9141V50.3011C65.8483 59.1377 58.6849 66.3011 49.8483 66.3011H16.4613C7.62474 66.3011 0.461304 59.1377 0.461304 50.3011V16.9141Z" fill="#FF9B53"/>
<path d="M38.7605 18.9568C38.1017 18.3044 37.2083 17.938 36.2767 17.938C35.3452 17.938 34.4518 18.3044 33.7929 18.9568L18.3655 34.2418C18.0392 34.565 17.7804 34.9488 17.6038 35.3711C17.4272 35.7934 17.3363 36.2461 17.3363 36.7032C17.3363 37.1603 17.4272 37.613 17.6038 38.0353C17.7804 38.4576 18.0392 38.8413 18.3655 39.1646L20.1957 40.9762C20.9921 41.7667 22.1118 41.626 22.788 41.2268C23.161 41.0074 23.5972 40.9173 24.0276 40.9708C24.4581 41.0243 24.8582 41.2183 25.165 41.5222C25.4717 41.8261 25.6676 42.2225 25.7215 42.6489C25.7755 43.0753 25.6846 43.5074 25.4631 43.8769C25.0618 44.5468 24.9181 45.6561 25.7161 46.4451L27.5479 48.2582C27.8742 48.5815 28.2616 48.8379 28.6879 49.0128C29.1142 49.1878 29.5711 49.2778 30.0325 49.2778C30.4939 49.2778 30.9508 49.1878 31.3772 49.0128C31.8035 48.8379 32.1908 48.5815 32.5171 48.2582L47.943 32.9763C48.2693 32.6531 48.5281 32.2693 48.7047 31.847C48.8813 31.4247 48.9722 30.972 48.9722 30.5149C48.9722 30.0578 48.8813 29.6051 48.7047 29.1828C48.5281 28.7605 48.2693 28.3768 47.943 28.0535L46.1143 26.2404C45.3179 25.4514 44.1966 25.5906 43.5204 25.9897C43.1474 26.2091 42.7113 26.2992 42.2809 26.2457C41.8504 26.1922 41.4502 25.9982 41.1435 25.6944C40.8367 25.3905 40.6409 24.994 40.5869 24.5676C40.5329 24.1412 40.6239 23.7091 40.8453 23.3396C41.2482 22.6697 41.3904 21.5605 40.5924 20.7715L38.7621 18.9568H38.7605Z" fill="white"/>
</svg>
