<svg width="17" height="16" viewBox="0 0 17 16" fill="none" xmlns="http://www.w3.org/2000/svg">
<g clip-path="url(#clip0_2701_1031)">
<g clip-path="url(#clip1_2701_1031)">
<path d="M12.0667 13.7429V12.4763C12.0667 11.8044 11.7998 11.16 11.3247 10.6849C10.8496 10.2098 10.2052 9.94292 9.53335 9.94292H4.46668C3.7948 9.94292 3.15044 10.2098 2.67535 10.6849C2.20025 11.16 1.93335 11.8044 1.93335 12.4763V13.7429" stroke="#7E8B97" stroke-width="1.5" stroke-linecap="round" stroke-linejoin="round"/>
<path d="M7.00001 7.40958C8.39913 7.40958 9.53334 6.27537 9.53334 4.87625C9.53334 3.47713 8.39913 2.34292 7.00001 2.34292C5.60089 2.34292 4.46667 3.47713 4.46667 4.87625C4.46667 6.27537 5.60089 7.40958 7.00001 7.40958Z" stroke="#7E8B97" stroke-width="1.5" stroke-linecap="round" stroke-linejoin="round"/>
<path d="M15.8667 13.7429V12.4763C15.8663 11.9149 15.6794 11.3697 15.3355 10.9261C14.9917 10.4824 14.5102 10.1656 13.9667 10.0253M11.4333 2.42525C11.9783 2.56478 12.4613 2.8817 12.8062 3.32605C13.1511 3.7704 13.3383 4.31691 13.3383 4.87942C13.3383 5.44193 13.1511 5.98844 12.8062 6.43279C12.4613 6.87714 11.9783 7.19406 11.4333 7.33359" stroke="#7E8B97" stroke-width="1.5" stroke-linecap="round" stroke-linejoin="round"/>
</g>
</g>
<defs>
<clipPath id="clip0_2701_1031">
<rect width="16" height="16" fill="white" transform="translate(0.5)"/>
</clipPath>
<clipPath id="clip1_2701_1031">
<rect width="15.2" height="15.2" fill="white" transform="translate(1.29999 0.442917)"/>
</clipPath>
</defs>
</svg>
