<svg width="66" height="67" viewBox="0 0 66 67" fill="none" xmlns="http://www.w3.org/2000/svg">
<path d="M0.383873 16.9141C0.383873 8.0775 7.54732 0.914062 16.3839 0.914062H49.7709C58.6075 0.914062 65.7709 8.07751 65.7709 16.9141V50.3011C65.7709 59.1377 58.6075 66.3011 49.7709 66.3011H16.3839C7.54731 66.3011 0.383873 59.1377 0.383873 50.3011V16.9141Z" fill="#FDBF00"/>
<path d="M19.6182 41.5809C19.6182 43.0476 20.2744 44.3642 21.3006 45.2809V47.4142C21.3006 48.7975 22.4278 49.9142 23.8242 49.9142C25.2205 49.9142 26.3477 48.7975 26.3477 47.4142V46.5809H39.8066V47.4142C39.8066 48.7809 40.9338 49.9142 42.3302 49.9142C43.7097 49.9142 44.8537 48.7975 44.8537 47.4142V45.2809C45.88 44.3642 46.5361 43.0476 46.5361 41.5809V24.9142C46.5361 19.0809 40.5132 18.2476 33.0772 18.2476C25.6411 18.2476 19.6182 19.0809 19.6182 24.9142V41.5809ZM25.5065 43.2476C24.1102 43.2476 22.983 42.1309 22.983 40.7476C22.983 39.3642 24.1102 38.2476 25.5065 38.2476C26.9029 38.2476 28.0301 39.3642 28.0301 40.7476C28.0301 42.1309 26.9029 43.2476 25.5065 43.2476ZM40.6478 43.2476C39.2515 43.2476 38.1243 42.1309 38.1243 40.7476C38.1243 39.3642 39.2515 38.2476 40.6478 38.2476C42.0442 38.2476 43.1714 39.3642 43.1714 40.7476C43.1714 42.1309 42.0442 43.2476 40.6478 43.2476ZM43.1714 33.2476H22.983V24.9142H43.1714V33.2476Z" fill="white"/>
</svg>
