<svg width="67" height="67" viewBox="0 0 67 67" fill="none" xmlns="http://www.w3.org/2000/svg">
<rect x="0.922607" y="0.914062" width="65.387" height="65.387" rx="16" fill="#36DA76"/>
<path d="M42.0839 46.3523C42.029 45.1788 41.9563 44.0116 41.8981 42.847C41.71 39.2038 41.7254 35.5072 41.5285 31.846C41.3317 28.2122 41.4484 24.5761 41.3446 20.9424C41.3236 20.1872 41.3574 18.6958 40.5759 18.2653C38.895 17.3404 37.897 19.863 37.4694 20.89C36.6985 22.7542 36.2531 24.7148 35.7024 26.6461C35.2331 28.2992 34.6987 29.9469 34.5175 31.6585C34.3834 32.9428 34.3957 34.3805 35.0666 35.5377C35.4035 36.1193 35.9861 36.5151 36.6494 36.6824C37.3378 36.8585 38.1249 36.6279 38.7782 36.9388C38.9466 37.0202 39.0949 37.1893 39.1625 37.36C39.3742 37.9102 39.174 38.7451 39.1078 39.3127C38.8981 41.1415 38.6763 42.9884 38.5771 44.8258C38.5184 45.9371 38.4535 47.3603 39.1257 48.3284C39.5377 48.9164 40.3728 49.4654 41.1263 49.1732C42.2524 48.7421 42.1307 47.286 42.0839 46.3523Z" fill="white"/>
<path d="M27.7573 19.0764C27.4337 19.2062 27.5564 20.3633 27.542 20.7188C27.5207 21.3575 27.5643 22.2026 27.4874 23.0304C27.487 23.0378 27.4859 23.0429 27.4848 23.0481C27.4781 23.1056 27.4727 23.1676 27.4633 23.2332C27.4532 23.2964 27.4424 23.3574 27.4347 23.4201C27.3657 23.8237 27.2344 24.3016 26.9861 24.5307C26.7043 24.7928 26.0727 24.7377 25.8534 24.428C25.4946 23.9239 25.5215 22.7985 25.4997 22.7654C25.4851 22.233 25.4075 20.6227 25.2912 19.561C25.2815 19.481 25.2661 18.9998 24.8267 18.9483C24.6218 18.9261 24.4062 19.1007 24.3363 19.4196C24.13 20.3609 23.9367 22.1552 23.9246 22.4373C23.9221 22.4647 23.9209 22.4965 23.9208 22.5232C23.9208 22.5232 23.9197 22.5284 23.9203 22.5306C23.919 22.5892 23.8492 23.995 23.4934 24.4799C23.3075 24.7342 22.8248 24.9342 22.3451 24.6651C22.154 24.5568 22.0231 24.3481 21.9308 24.1244C21.4292 22.5631 21.8795 20.8431 21.9436 20.0234C21.9625 19.7929 22.1713 19.0233 21.7056 19.049C21.0043 19.0871 20.0988 22.0748 19.9369 22.7596C19.5399 24.4634 19.4797 26.284 20.1702 27.9275C20.5538 28.8376 21.3041 29.5826 22.2344 29.9438C22.6456 30.102 23.1026 30.2168 23.5864 30.2834C23.4123 34.1568 23.2147 38.1989 23.0347 40.4483C22.8962 42.1411 22.7328 43.8525 22.7548 45.5524C22.7678 46.568 22.7571 47.779 23.4237 48.6305C24.1211 49.5202 25.592 49.1109 25.9892 48.0596C26.4347 46.8746 26.3051 45.4936 26.1534 43.3178C26.0011 41.1397 25.8296 38.1684 25.7351 36.5697C25.5968 34.2157 25.5486 32.1587 25.5353 30.2819C26.774 30.105 27.9292 29.5735 28.5758 28.596C28.8594 28.1685 29.0462 27.6908 29.1737 27.1993C29.3694 26.4549 29.4648 25.6393 29.4225 24.8715C29.3795 24.1645 28.7985 18.6594 27.7573 19.0764Z" fill="white"/>
</svg>
