<svg width="25" height="25" viewBox="0 0 25 25" fill="none" xmlns="http://www.w3.org/2000/svg">
<g clip-path="url(#clip0_2701_1281)">
<path d="M12.873 22.2186C10.2497 22.2186 7.73382 21.1765 5.87884 19.3215C4.02386 17.4665 2.98175 14.9506 2.98175 12.3273C2.98175 9.70396 4.02386 7.18807 5.87884 5.33309C7.73382 3.47811 10.2497 2.43599 12.873 2.43599C15.4964 2.43599 18.0123 3.47811 19.8673 5.33309C21.7222 7.18807 22.7643 9.70396 22.7643 12.3273C22.7643 14.9506 21.7222 17.4665 19.8673 19.3215C18.0123 21.1765 15.4964 22.2186 12.873 22.2186ZM12.873 23.6316C15.8711 23.6316 18.7464 22.4406 20.8664 20.3207C22.9864 18.2007 24.1774 15.3254 24.1774 12.3273C24.1774 9.32919 22.9864 6.45389 20.8664 4.33391C18.7464 2.21394 15.8711 1.02295 12.873 1.02295C9.87495 1.02295 6.99964 2.21394 4.87967 4.33391C2.75969 6.45389 1.5687 9.32919 1.5687 12.3273C1.5687 15.3254 2.75969 18.2007 4.87967 20.3207C6.99964 22.4406 9.87495 23.6316 12.873 23.6316V23.6316Z" fill="#1262AF"/>
<path d="M10.3496 7.52719C10.4829 7.45854 10.6326 7.42801 10.7821 7.43894C10.9316 7.44986 11.0753 7.50183 11.1972 7.58912L16.9018 11.6639C17.0075 11.7393 17.0936 11.8388 17.153 11.9542C17.2124 12.0696 17.2434 12.1975 17.2434 12.3273C17.2434 12.457 17.2124 12.585 17.153 12.7003C17.0936 12.8157 17.0075 12.9152 16.9018 12.9906L11.1972 17.0654C11.0753 17.1526 10.9317 17.2046 10.7823 17.2155C10.6328 17.2264 10.4832 17.1959 10.35 17.1273C10.2167 17.0588 10.105 16.9548 10.027 16.8268C9.94898 16.6989 9.90778 16.5519 9.9079 16.402V8.25249C9.90774 8.10268 9.94889 7.95572 10.0268 7.82776C10.1047 7.6998 10.2164 7.5958 10.3496 7.52719V7.52719Z" fill="#1262AF"/>
</g>
<defs>
<clipPath id="clip0_2701_1281">
<rect width="24" height="24" fill="white" transform="translate(0.873047 0.327393)"/>
</clipPath>
</defs>
</svg>
