<svg width="24" height="25" viewBox="0 0 24 25" fill="none" xmlns="http://www.w3.org/2000/svg">
<path fill-rule="evenodd" clip-rule="evenodd" d="M7.42858 5.74295C7.27703 5.74295 7.13168 5.80316 7.02452 5.91032C6.91736 6.01749 6.85715 6.16283 6.85715 6.31438V8.6001C6.85715 8.75165 6.91736 8.89699 7.02452 9.00416C7.13168 9.11132 7.27703 9.17153 7.42858 9.17153C7.58013 9.17153 7.72548 9.11132 7.83264 9.00416C7.9398 8.89699 8.00001 8.75165 8.00001 8.6001V6.31438C8.00001 6.16283 7.9398 6.01749 7.83264 5.91032C7.72548 5.80316 7.58013 5.74295 7.42858 5.74295ZM7.42858 4.6001C7.88324 4.6001 8.31927 4.78071 8.64076 5.1022C8.96225 5.42369 9.14287 5.85973 9.14287 6.31438V8.6001C9.14287 9.05475 8.96225 9.49079 8.64076 9.81228C8.31927 10.1338 7.88324 10.3144 7.42858 10.3144C6.97392 10.3144 6.53789 10.1338 6.2164 9.81228C5.89491 9.49079 5.71429 9.05475 5.71429 8.6001V6.31438C5.71429 5.85973 5.89491 5.42369 6.2164 5.1022C6.53789 4.78071 6.97392 4.6001 7.42858 4.6001Z" fill="#303030"/>
<path fill-rule="evenodd" clip-rule="evenodd" d="M8 7.45717C8 7.14158 8.25584 6.88574 8.57143 6.88574H21.1429C21.4584 6.88574 21.7143 7.14158 21.7143 7.45717C21.7143 7.77276 21.4584 8.0286 21.1429 8.0286H8.57143C8.25584 8.0286 8 7.77276 8 7.45717Z" fill="#303030"/>
<path fill-rule="evenodd" clip-rule="evenodd" d="M2.28571 7.45717C2.28571 7.14158 2.54154 6.88574 2.85713 6.88574H6.28571C6.6013 6.88574 6.85713 7.14158 6.85713 7.45717C6.85713 7.77276 6.6013 8.0286 6.28571 8.0286H2.85713C2.54154 8.0286 2.28571 7.77276 2.28571 7.45717Z" fill="#303030"/>
<path fill-rule="evenodd" clip-rule="evenodd" d="M7.42858 17.1714C7.27703 17.1714 7.13168 17.2316 7.02452 17.3388C6.91736 17.446 6.85715 17.5913 6.85715 17.7429V20.0286C6.85715 20.1801 6.91736 20.3255 7.02452 20.4326C7.13168 20.5398 7.27703 20.6 7.42858 20.6C7.58013 20.6 7.72548 20.5398 7.83264 20.4326C7.9398 20.3255 8.00001 20.1801 8.00001 20.0286V17.7429C8.00001 17.5913 7.9398 17.446 7.83264 17.3388C7.72548 17.2316 7.58013 17.1714 7.42858 17.1714ZM6.2164 16.5307C6.53789 16.2092 6.97392 16.0286 7.42858 16.0286C7.88324 16.0286 8.31927 16.2092 8.64076 16.5307C8.96225 16.8522 9.14287 17.2882 9.14287 17.7429V20.0286C9.14287 20.4832 8.96225 20.9193 8.64076 21.2407C8.31927 21.5622 7.88324 21.7429 7.42858 21.7429C6.97392 21.7429 6.53789 21.5622 6.2164 21.2407C5.89491 20.9193 5.71429 20.4832 5.71429 20.0286V17.7429C5.71429 17.2882 5.89491 16.8522 6.2164 16.5307Z" fill="#303030"/>
<path fill-rule="evenodd" clip-rule="evenodd" d="M8 18.8859C8 18.5703 8.25584 18.3145 8.57143 18.3145H21.1429C21.4584 18.3145 21.7143 18.5703 21.7143 18.8859C21.7143 19.2015 21.4584 19.4573 21.1429 19.4573H8.57143C8.25584 19.4573 8 19.2015 8 18.8859Z" fill="#303030"/>
<path fill-rule="evenodd" clip-rule="evenodd" d="M2.28571 18.8859C2.28571 18.5703 2.54154 18.3145 2.85713 18.3145H6.28571C6.6013 18.3145 6.85713 18.5703 6.85713 18.8859C6.85713 19.2015 6.6013 19.4573 6.28571 19.4573H2.85713C2.54154 19.4573 2.28571 19.2015 2.28571 18.8859Z" fill="#303030"/>
<path fill-rule="evenodd" clip-rule="evenodd" d="M16.5714 11.4573C16.4199 11.4573 16.2745 11.5175 16.1673 11.6247C16.0602 11.7318 16 11.8772 16 12.0287V14.3145C16 14.466 16.0602 14.6113 16.1673 14.7185C16.2745 14.8257 16.4199 14.8859 16.5714 14.8859C16.723 14.8859 16.8683 14.8257 16.9755 14.7185C17.0826 14.6113 17.1428 14.466 17.1428 14.3145V12.0287C17.1428 11.8772 17.0826 11.7318 16.9755 11.6247C16.8683 11.5175 16.723 11.4573 16.5714 11.4573ZM16.5714 10.3145C17.0261 10.3145 17.4621 10.4951 17.7836 10.8166C18.1051 11.138 18.2857 11.5741 18.2857 12.0287V14.3145C18.2857 14.7691 18.1051 15.2051 17.7836 15.5266C17.4621 15.8481 17.0261 16.0287 16.5714 16.0287C16.1167 16.0287 15.6807 15.8481 15.3592 15.5266C15.0377 15.2051 14.8571 14.7691 14.8571 14.3145V12.0287C14.8571 11.5741 15.0377 11.138 15.3592 10.8166C15.6807 10.4951 16.1167 10.3145 16.5714 10.3145Z" fill="#303030"/>
<path fill-rule="evenodd" clip-rule="evenodd" d="M2.28571 13.1715C2.28571 12.8559 2.54154 12.6001 2.85713 12.6001H15.4286C15.7442 12.6001 16 12.8559 16 13.1715C16 13.4871 15.7442 13.743 15.4286 13.743H2.85713C2.54154 13.743 2.28571 13.4871 2.28571 13.1715Z" fill="#303030"/>
<path fill-rule="evenodd" clip-rule="evenodd" d="M17.1428 13.1715C17.1428 12.8559 17.3987 12.6001 17.7143 12.6001H21.1428C21.4584 12.6001 21.7143 12.8559 21.7143 13.1715C21.7143 13.4871 21.4584 13.743 21.1428 13.743H17.7143C17.3987 13.743 17.1428 13.4871 17.1428 13.1715Z" fill="#303030"/>
</svg>
