<svg width="118" height="25" viewBox="0 0 118 25" fill="none" xmlns="http://www.w3.org/2000/svg">
<line x1="5.04318" y1="12.7456" x2="108.595" y2="12.7456" stroke="#CCCCCC" stroke-dasharray="3 3"/>
<g clip-path="url(#clip0_2701_447)">
<path d="M57.6234 22.6641H56.258C56.1208 22.664 55.9858 22.6325 55.8653 22.5725C55.7449 22.5125 55.6428 22.4258 55.5685 22.3204C55.4941 22.2151 55.4499 22.0943 55.4398 21.9693C55.4297 21.8443 55.454 21.7189 55.5106 21.6047L58.817 14.9367L53.8523 14.8359L52.0416 16.8408C51.6964 17.2373 51.421 17.4141 50.7183 17.4141H49.7991C49.6536 17.4183 49.509 17.3905 49.3778 17.3329C49.2465 17.2753 49.1324 17.1896 49.0451 17.0831C48.923 16.9327 48.803 16.6777 48.9199 16.3139L49.9366 12.9858C49.9442 12.9609 49.9535 12.9361 49.9637 12.9117C49.9642 12.9094 49.9642 12.907 49.9637 12.9047C49.9531 12.8803 49.9441 12.8554 49.9366 12.8302L48.9189 9.48094C48.8086 9.12422 48.9291 8.87484 49.0502 8.72812C49.1315 8.62956 49.2369 8.54979 49.3581 8.49524C49.4793 8.4407 49.6127 8.41289 49.7478 8.41406H50.7183C51.243 8.41406 51.7523 8.62922 52.0519 8.97656L53.8251 10.9477L58.817 10.8802L55.5117 4.22391C55.455 4.10974 55.4305 3.98442 55.4405 3.85939C55.4505 3.73436 55.4947 3.61362 55.5689 3.5082C55.6431 3.40278 55.7451 3.31604 55.8655 3.25593C55.9859 3.19581 56.1208 3.16423 56.258 3.16406H57.6383C57.8309 3.1676 58.0201 3.21073 58.1919 3.29026C58.3637 3.36979 58.5138 3.48366 58.6308 3.62344L65.0451 10.7484L68.0083 10.6772C68.2253 10.6664 68.8265 10.6627 68.9655 10.6627C71.8 10.6641 73.4927 11.505 73.4927 12.9141C73.4927 13.3575 73.2988 14.1797 72.0016 14.7028C71.2357 15.0122 70.214 15.1688 68.9645 15.1688C68.827 15.1688 68.2274 15.165 68.0073 15.1542L65.0446 15.082L58.6144 22.207C58.4973 22.3462 58.3474 22.4595 58.1758 22.5386C58.0043 22.6177 57.8155 22.6606 57.6234 22.6641Z" fill="#1262AE"/>
</g>
<circle cx="5.30197" cy="13.2456" r="4" fill="white" stroke="#1262AE" stroke-width="2"/>
<circle cx="112.653" cy="12.8286" r="4" fill="white" stroke="#1262AE" stroke-width="2"/>
<defs>
<clipPath id="clip0_2701_447">
<rect width="26.2624" height="24" fill="white" transform="translate(48.051 0.914062)"/>
</clipPath>
</defs>
</svg>
