<svg width="108" height="17" viewBox="0 0 108 17" fill="none" xmlns="http://www.w3.org/2000/svg">
<path d="M5.23223 8.4802L102.24 8.61811" stroke="#CACACA" stroke-width="0.836813" stroke-linecap="square" stroke-dasharray="1.67 4.18"/>
<path d="M51.078 16.0522H52.7308L56.8628 9.69245L61.4079 9.69245C62.0938 9.69245 62.6475 9.15983 62.6475 8.49999C62.6475 7.84015 62.0938 7.30753 61.4079 7.30753L56.8628 7.30753L52.7308 0.947784L51.078 0.947784L53.144 7.30757L48.5988 7.30757L47.3592 5.71761H46.1196L46.946 8.50003L46.1196 11.2824H47.3592L48.5988 9.69245H53.144L51.078 16.0522Z" fill="#1262AE"/>
<circle cx="5.32864" cy="8.44778" r="3.66319" fill="white" stroke="#1262AE" stroke-width="1.67363"/>
<path d="M107.101 9.13185C107.101 10.9502 105.56 12.4791 103.589 12.4791C101.618 12.4791 100.076 10.9502 100.076 9.13185C100.076 7.31349 101.618 5.7846 103.589 5.7846C105.56 5.7846 107.101 7.31349 107.101 9.13185Z" fill="white" stroke="#1262AE" stroke-width="1.67363"/>
</svg>
