<svg width="108" height="17" viewBox="0 0 108 17" fill="none" xmlns="http://www.w3.org/2000/svg">
<path d="M5.23223 8.48019L102.24 8.61811" stroke="#CACACA" stroke-width="0.836813" stroke-linecap="square" stroke-dasharray="1.67 4.18"/>
<path d="M51.078 16.0522H52.7308L56.8628 9.69244L61.4079 9.69244C62.0938 9.69244 62.6475 9.15982 62.6475 8.49998C62.6475 7.84014 62.0938 7.30752 61.4079 7.30752L56.8628 7.30752L52.7308 0.947777L51.078 0.947777L53.144 7.30756L48.5988 7.30756L47.3592 5.71761H46.1196L46.946 8.50002L46.1196 11.2824H47.3592L48.5988 9.69244H53.144L51.078 16.0522Z" fill="#1262AE"/>
<circle cx="5.32864" cy="8.44778" r="3.66319" fill="white" stroke="#1262AE" stroke-width="1.67363"/>
<path d="M107.101 9.13184C107.101 10.9502 105.56 12.4791 103.589 12.4791C101.618 12.4791 100.076 10.9502 100.076 9.13184C100.076 7.31348 101.618 5.78459 103.589 5.78459C105.56 5.78459 107.101 7.31348 107.101 9.13184Z" fill="white" stroke="#1262AE" stroke-width="1.67363"/>
</svg>
