<svg width="119" height="25" viewBox="0 0 119 25" fill="none" xmlns="http://www.w3.org/2000/svg">
<line x1="5.54318" y1="12.7456" x2="109.095" y2="12.7456" stroke="#CCCCCC" stroke-dasharray="3 3"/>
<path d="M58.1234 22.6641H56.758C56.6208 22.664 56.4858 22.6325 56.3653 22.5725C56.2449 22.5125 56.1428 22.4258 56.0685 22.3204C55.9941 22.2151 55.9499 22.0943 55.9398 21.9693C55.9297 21.8443 55.954 21.7189 56.0106 21.6047L59.317 14.9367L54.3523 14.8359L52.5416 16.8408C52.1964 17.2373 51.921 17.4141 51.2183 17.4141H50.2991C50.1536 17.4183 50.009 17.3905 49.8778 17.3329C49.7465 17.2753 49.6324 17.1896 49.5451 17.0831C49.423 16.9327 49.303 16.6777 49.4199 16.3139L50.4366 12.9858C50.4442 12.9609 50.4535 12.9361 50.4637 12.9117C50.4642 12.9094 50.4642 12.907 50.4637 12.9047C50.4531 12.8803 50.4441 12.8554 50.4366 12.8302L49.4189 9.48094C49.3086 9.12422 49.4291 8.87484 49.5502 8.72812C49.6315 8.62956 49.7369 8.54979 49.8581 8.49524C49.9793 8.4407 50.1127 8.41289 50.2478 8.41406H51.2183C51.743 8.41406 52.2523 8.62922 52.5519 8.97656L54.3251 10.9477L59.317 10.8802L56.0117 4.22391C55.955 4.10974 55.9305 3.98442 55.9405 3.85939C55.9505 3.73436 55.9947 3.61362 56.0689 3.5082C56.1431 3.40278 56.2451 3.31604 56.3655 3.25593C56.4859 3.19581 56.6208 3.16423 56.758 3.16406H58.1383C58.3309 3.1676 58.5201 3.21073 58.6919 3.29026C58.8637 3.36979 59.0138 3.48366 59.1308 3.62344L65.5451 10.7484L68.5083 10.6772C68.7253 10.6664 69.3265 10.6627 69.4655 10.6627C72.3 10.6641 73.9927 11.505 73.9927 12.9141C73.9927 13.3575 73.7988 14.1797 72.5016 14.7028C71.7357 15.0122 70.714 15.1688 69.4645 15.1688C69.327 15.1688 68.7274 15.165 68.5073 15.1542L65.5446 15.082L59.1144 22.207C58.9973 22.3462 58.8474 22.4595 58.6758 22.5386C58.5043 22.6177 58.3155 22.6606 58.1234 22.6641Z" fill="#1262AE"/>
<circle cx="5.80197" cy="13.2456" r="4" fill="white" stroke="#1262AE" stroke-width="2"/>
<circle cx="113.153" cy="12.8286" r="4" fill="white" stroke="#1262AE" stroke-width="2"/>
</svg>
