<svg width="174" height="34" viewBox="0 0 174 34" fill="none" xmlns="http://www.w3.org/2000/svg">
<g clip-path="url(#clip0_2701_1366)">
<path d="M129.851 8.96234C131.214 8.96234 132.452 9.13574 133.564 9.48252C134.676 9.82931 135.615 10.2777 136.38 10.8278C136.858 11.1626 137.235 11.5333 137.51 11.9399C137.785 12.3465 137.923 12.8727 137.923 13.5184V26.0745L137.917 26.4159C137.877 27.5395 137.64 28.5199 137.205 29.357C136.727 30.2777 136.075 31.0431 135.25 31.6529C134.425 32.2628 133.456 32.7112 132.344 32.9982C131.232 33.2852 130.042 33.4287 128.775 33.4287C126.598 33.4287 124.888 33.1357 123.645 32.5498C122.401 31.9638 121.779 31.0132 121.779 29.6978C121.779 29.1477 121.893 28.6634 122.12 28.2449C122.347 27.8263 122.604 27.5094 122.891 27.2942C123.585 27.6768 124.368 27.9997 125.241 28.2628C126.114 28.5259 127.017 28.6574 127.95 28.6574C129.241 28.6574 130.269 28.4422 131.035 28.0117C131.8 27.5812 132.183 26.8876 132.183 25.931V25.357L131.91 25.469C130.983 25.8248 129.878 26.0027 128.595 26.0027C127.519 26.0027 126.497 25.8413 125.528 25.5184C124.559 25.1955 123.71 24.6933 122.981 24.0117C122.251 23.3301 121.665 22.4511 121.223 21.3749C120.781 20.2987 120.559 19.0191 120.559 17.5363C120.559 16.0774 120.793 14.8099 121.259 13.7336C121.725 12.6574 122.371 11.7665 123.196 11.061C124.021 10.3555 125.002 9.82931 126.138 9.48252C127.274 9.13574 128.512 8.96234 129.851 8.96234ZM33.2869 9.51926C35.4197 9.51926 37.165 9.99784 38.5227 10.955C39.8804 11.9122 40.6841 13.6028 40.9338 16.0269H36.3769L36.3333 15.7588C36.2301 15.2301 36.0313 14.7472 35.737 14.3103C35.2377 13.6236 34.4626 13.2803 33.4118 13.2803C31.9136 13.2803 30.8888 14.0242 30.3374 15.5119C30.0461 16.3026 29.9004 17.3534 29.9004 18.6643C29.9004 19.9128 30.0461 20.9168 30.3374 21.6763C30.868 23.0912 31.8668 23.7987 33.3337 23.7987C34.3741 23.7987 35.1128 23.5177 35.5498 22.9559C35.9867 22.3941 36.252 21.6658 36.3457 20.7711H40.887L40.8561 21.0819C40.7054 22.3201 40.2267 23.4961 39.42 24.6102C38.0259 26.5557 35.9607 27.5285 33.2245 27.5285C30.4883 27.5285 28.4751 26.717 27.185 25.0939C25.8949 23.4709 25.2499 21.3641 25.2499 18.7736C25.2499 15.8501 25.9626 13.5768 27.3879 11.9538C28.8132 10.3308 30.7796 9.51926 33.2869 9.51926ZM74.6185 9.47245C76.0334 9.47245 77.3079 9.73775 78.4419 10.2683C79.5759 10.7989 80.5123 11.6365 81.251 12.7809C81.9168 13.7901 82.3486 14.9605 82.5462 16.2922C82.6607 17.0725 82.7075 18.1961 82.6867 19.6631H71.0447L71.0606 19.9589C71.1718 21.5083 71.7023 22.6062 72.6521 23.2524C73.2659 23.679 74.0046 23.8923 74.8681 23.8923C75.7837 23.8923 76.5276 23.6322 77.0998 23.112C77.4119 22.8311 77.6876 22.4409 77.9269 21.9416H82.4682L82.4345 22.1747C82.2705 23.1085 81.7563 24.0555 80.892 25.0159C79.4355 26.6701 77.3963 27.4972 74.7745 27.4972C72.6105 27.4972 70.7014 26.8002 69.0471 25.4061C67.3929 24.0119 66.5658 21.7439 66.5658 18.6019C66.5658 15.6576 67.3123 13.3999 68.8053 11.8289C70.2982 10.2579 72.236 9.47245 74.6185 9.47245ZM105.848 3.22243C106.374 3.22243 106.846 3.25831 107.265 3.33006C107.683 3.40181 108.036 3.5453 108.323 3.76055C108.61 3.9758 108.831 4.26877 108.987 4.63947C109.142 5.01018 109.22 5.49448 109.22 6.09239V26.8996L109.099 26.9212C108.843 26.9666 108.495 27.0251 108.054 27.0969C107.54 27.1806 107.019 27.2224 106.493 27.2224C105.967 27.2224 105.495 27.1866 105.076 27.1148C104.658 27.0431 104.305 26.8996 104.018 26.6843C103.731 26.4691 103.51 26.1761 103.354 25.8054C103.199 25.4347 103.121 24.9504 103.121 24.3525V3.5453L103.242 3.52371C103.498 3.47831 103.846 3.41974 104.287 3.34799C104.801 3.26429 105.321 3.22243 105.848 3.22243ZM115.015 9.42871C115.541 9.42871 116.014 9.46459 116.432 9.53633C116.851 9.60808 117.203 9.75158 117.49 9.96683C117.777 10.1821 117.999 10.475 118.154 10.8458C118.31 11.2165 118.387 11.7008 118.387 12.2987V26.8996L118.267 26.9212C118.011 26.9666 117.662 27.0251 117.221 27.0969C116.707 27.1806 116.187 27.2224 115.661 27.2224C115.135 27.2224 114.662 27.1866 114.244 27.1148C113.825 27.0431 113.473 26.8996 113.186 26.6843C112.899 26.4691 112.677 26.1761 112.522 25.8054C112.366 25.4347 112.289 24.9504 112.289 24.3525V9.75158L112.409 9.72998C112.665 9.68459 113.014 9.62602 113.455 9.55427C113.969 9.47056 114.489 9.42871 115.015 9.42871ZM143.574 3.22243C144.101 3.22243 144.573 3.25831 144.991 3.33006C145.41 3.40181 145.763 3.5453 146.05 3.76055C146.337 3.9758 146.558 4.26877 146.713 4.63947C146.869 5.01018 146.947 5.49448 146.947 6.09239V9.60808L147.071 9.5624C147.378 9.45384 147.809 9.33155 148.364 9.19553C148.997 9.04007 149.697 8.96234 150.462 8.96234C152.83 8.96234 154.678 9.55427 156.005 10.7381C157.332 11.922 157.996 13.6858 157.996 16.0296V26.8996L157.885 26.9303C157.646 26.9918 157.307 27.0533 156.866 27.1148C156.352 27.1866 155.82 27.2224 155.27 27.2224C154.743 27.2224 154.271 27.1866 153.852 27.1148C153.434 27.0431 153.081 26.8996 152.794 26.6843C152.507 26.4691 152.286 26.1761 152.131 25.8054C151.975 25.4347 151.897 24.9504 151.897 24.3525V16.3884L151.893 16.1673C151.858 15.3037 151.614 14.6898 151.162 14.3256C150.672 13.931 150.068 13.7336 149.35 13.7336C148.872 13.7336 148.417 13.7934 147.987 13.913C147.557 14.0326 147.21 14.1761 146.947 14.3435V26.8996L146.836 26.9303C146.597 26.9918 146.257 27.0533 145.817 27.1148C145.302 27.1866 144.77 27.2224 144.22 27.2224C143.694 27.2224 143.222 27.1866 142.803 27.1148C142.385 27.0431 142.032 26.8996 141.745 26.6843C141.458 26.4691 141.237 26.1761 141.081 25.8054C140.926 25.4347 140.848 24.9504 140.848 24.3525V3.5453L140.968 3.52371C141.225 3.47831 141.573 3.41974 142.014 3.34799C142.528 3.26429 143.048 3.22243 143.574 3.22243ZM100.626 5.19553L100.708 5.33454C100.843 5.57869 100.965 5.88511 101.075 6.25382C101.206 6.69627 101.272 7.15666 101.272 7.63499C101.272 8.56772 101.075 9.2314 100.68 9.62602C100.285 10.0206 99.7533 10.2179 99.0836 10.2179H91.55V14.2718H99.4065L99.4997 14.4103C99.6508 14.6528 99.7812 14.9534 99.8908 15.3121C100.022 15.7426 100.088 16.197 100.088 16.6753C100.088 17.5842 99.8908 18.2359 99.4962 18.6305C99.1016 19.0251 98.5694 19.2224 97.8998 19.2224H91.6217V26.7919L91.4998 26.8227C91.2377 26.8842 90.8658 26.9457 90.3841 27.0072C89.822 27.0789 89.266 27.1148 88.7159 27.1148C88.1658 27.1148 87.6815 27.073 87.263 26.9892C86.8445 26.9055 86.4917 26.7561 86.2047 26.5408C85.9177 26.3256 85.7025 26.0266 85.559 25.644C85.4155 25.2613 85.3437 24.7591 85.3437 24.1372V8.53185L85.3499 8.27923C85.3956 7.36942 85.6925 6.64047 86.2406 6.09239C86.8385 5.49448 87.6516 5.19553 88.68 5.19553H100.626ZM16.3082 3.96357V8.00549H4.7754V13.2959H14.8724V17.291H4.7754V26.9354H0V3.96357H16.3082ZM22.8234 9.92502V26.9354H18.3133V9.92502H22.8234ZM47.4022 4.01038V16.4015L52.9423 10.003H58.4512L52.5054 16.5107L58.6853 26.9354H53.3169L49.2437 19.6631L47.4022 21.5826V26.9354H43.0326V4.01038H47.4022ZM64.4827 3.93235V26.9354H60.035V3.93235H64.4827ZM158.328 5.048C159.074 4.82381 160.346 4.77394 161.836 5.43265C163.339 6.09763 164.277 7.23822 164.649 8.85443L172.721 9.54045C172.821 9.54625 172.92 9.5665 173.019 9.6012C173.167 9.65326 173.247 9.7265 173.314 9.78383C173.478 9.9244 173.531 10.0328 173.609 10.2269C173.748 10.572 173.706 10.9782 173.525 11.2567C173.233 11.7058 172.777 11.9963 172.156 12.1284L165.639 13.5134L166.79 18.925C166.922 19.5462 167.213 19.9464 167.663 20.1254C168.113 20.3044 168.696 20.3177 169.413 20.1654C169.772 20.0892 170.135 19.9806 170.505 19.8396C170.875 19.6986 171.193 19.5499 171.459 19.3934C171.73 19.6105 171.977 19.8638 172.201 20.1533C172.425 20.4429 172.585 20.8146 172.682 21.2686C173.038 22.9467 170.397 24.5321 168.666 24.8433C167.062 25.1314 164.602 25.3708 163.195 21.6861C161.789 18.0014 159.58 11.8249 157.894 6.67772C157.748 6.23352 157.658 5.79725 157.814 5.43725C157.899 5.24266 157.96 5.15867 158.328 5.048ZM130.138 13.7336C128.966 13.7336 128.087 14.0625 127.501 14.7202C126.915 15.3779 126.622 16.3166 126.622 17.5363C126.622 18.9235 126.915 19.922 127.501 20.5319C128.087 21.1417 128.834 21.4466 129.743 21.4466C130.724 21.4466 131.501 21.2194 132.075 20.765V14.1641L131.965 14.1067C131.806 14.0302 131.598 13.9537 131.34 13.8771C131.017 13.7815 130.616 13.7336 130.138 13.7336ZM74.6185 13.1398C73.5885 13.1398 72.79 13.4624 72.2229 14.1074C71.6559 14.7524 71.2996 15.6264 71.1539 16.7292H78.0674C77.9945 15.5535 77.6382 14.6614 76.9984 14.0528C76.3585 13.4441 75.5652 13.1398 74.6185 13.1398ZM22.8234 3.7919V7.89625H18.3133V3.7919H22.8234ZM115.338 1.42871C116.342 1.42871 117.15 1.73962 117.76 2.36145C118.369 2.98327 118.674 3.74859 118.674 4.65741C118.674 5.56623 118.369 6.33155 117.76 6.95337C117.15 7.5752 116.342 7.88611 115.338 7.88611C114.334 7.88611 113.526 7.5752 112.916 6.95337C112.307 6.33155 112.002 5.56623 112.002 4.65741C112.002 3.74859 112.307 2.98327 112.916 2.36145C113.526 1.73962 114.334 1.42871 115.338 1.42871Z" fill="white"/>
</g>
<defs>
<clipPath id="clip0_2701_1366">
<rect width="174" height="33" fill="white" transform="translate(0 0.90332)"/>
</clipPath>
</defs>
</svg>
