<svg width="66" height="67" viewBox="0 0 66 67" fill="none" xmlns="http://www.w3.org/2000/svg">
<path d="M0.612915 16.9141C0.612915 8.0775 7.77636 0.914062 16.6129 0.914062H50C58.8365 0.914062 66 8.07751 66 16.9141V50.3011C66 59.1377 58.8365 66.3011 50 66.3011H16.6129C7.77635 66.3011 0.612915 59.1377 0.612915 50.3011V16.9141Z" fill="#79CA00"/>
<path d="M43.7498 21.9678H22.8625C21.4226 21.9678 20.2516 23.1278 20.2516 24.5543V42.6603C20.2516 44.0867 21.4226 45.2468 22.8625 45.2468H43.7498C45.1897 45.2468 46.3607 44.0867 46.3607 42.6603V24.5543C46.3607 23.1278 45.1897 21.9678 43.7498 21.9678ZM43.7511 29.7275C43.7498 29.7275 43.7498 29.7275 43.7511 29.7275H43.1441L39.6624 24.5543H43.7498L43.7511 29.7275ZM37.8752 37.4871L30.6952 41.367V33.6073L37.8752 37.4871ZM36.6168 29.7275L33.1351 24.5543H36.5241L40.0058 29.7275H36.6168ZM33.4785 29.7275H30.0895L26.6079 24.5543H29.9968L33.4785 29.7275ZM22.8625 24.5543H23.4695L26.9512 29.7275H22.8625V24.5543Z" fill="white"/>
</svg>
