<svg width="130" height="31" viewBox="0 0 130 31" fill="none" xmlns="http://www.w3.org/2000/svg">
<g clip-path="url(#clip0_2701_1369)">
<path d="M15.0001 1.50342C7.0471 1.50342 0.600098 7.95042 0.600098 15.9034C0.600098 23.8564 7.0471 30.3034 15.0001 30.3034C22.9531 30.3034 29.4001 23.8564 29.4001 15.9034C29.4001 7.95042 22.9531 1.50342 15.0001 1.50342ZM18.4111 11.4544H16.2466C15.9901 11.4544 15.7051 11.7919 15.7051 12.2404V13.8034H18.4126L18.0031 16.0324H15.7051V22.7239H13.1506V16.0324H10.8331V13.8034H13.1506V12.4924C13.1506 10.6114 14.4556 9.08292 16.2466 9.08292H18.4111V11.4544Z" fill="white"/>
</g>
<g clip-path="url(#clip1_2701_1369)">
<path d="M115 1.50342C107.047 1.50342 100.6 7.95042 100.6 15.9034C100.6 23.8564 107.047 30.3034 115 30.3034C122.953 30.3034 129.4 23.8564 129.4 15.9034C129.4 7.95042 122.953 1.50342 115 1.50342ZM120.858 13.2994C120.864 13.4224 120.865 13.5454 120.865 13.6654C120.865 17.4154 118.014 21.7369 112.797 21.7369C111.255 21.7395 109.746 21.2967 108.45 20.4619C108.67 20.4889 108.897 20.4994 109.126 20.4994C110.455 20.4994 111.678 20.0479 112.648 19.2859C112.057 19.2743 111.484 19.0785 111.009 18.7257C110.534 18.3729 110.181 17.8808 109.999 17.3179C110.424 17.3987 110.861 17.3818 111.279 17.2684C110.637 17.1386 110.059 16.7908 109.645 16.2839C109.23 15.777 109.003 15.1423 109.003 14.4874V14.4529C109.386 14.6644 109.824 14.7934 110.289 14.8084C109.687 14.4078 109.261 13.7924 109.098 13.0881C108.935 12.3838 109.047 11.6438 109.411 11.0194C110.124 11.8954 111.012 12.612 112.019 13.1229C113.026 13.6337 114.129 13.9274 115.257 13.9849C115.113 13.3764 115.175 12.7375 115.432 12.1677C115.689 11.5978 116.128 11.1289 116.679 10.8338C117.23 10.5387 117.863 10.434 118.48 10.5359C119.097 10.6378 119.663 10.9407 120.09 11.3974C120.724 11.2718 121.333 11.039 121.89 10.7089C121.678 11.3661 121.235 11.9242 120.643 12.2794C121.205 12.2117 121.754 12.0605 122.272 11.8309C121.892 12.4008 121.413 12.8981 120.858 13.2994Z" fill="white"/>
</g>
<g clip-path="url(#clip2_2701_1369)">
<path d="M69.5001 15.9034C69.5001 17.0969 69.026 18.2415 68.1821 19.0854C67.3382 19.9293 66.1936 20.4034 65.0001 20.4034C63.8066 20.4034 62.662 19.9293 61.8181 19.0854C60.9742 18.2415 60.5001 17.0969 60.5001 15.9034C60.5001 15.6469 60.5271 15.3964 60.5736 15.1534H59.0001V21.1489C59.0001 21.5659 59.3376 21.9034 59.7546 21.9034H70.2471C70.4469 21.903 70.6385 21.8234 70.7796 21.6819C70.9208 21.5404 71.0001 21.3488 71.0001 21.1489V15.1534H69.4266C69.4731 15.3964 69.5001 15.6469 69.5001 15.9034ZM65.0001 18.9034C65.3942 18.9033 65.7844 18.8256 66.1484 18.6747C66.5124 18.5238 66.8432 18.3027 67.1217 18.024C67.4003 17.7453 67.6213 17.4144 67.772 17.0503C67.9227 16.6862 68.0002 16.296 68.0001 15.9019C68 15.5079 67.9223 15.1177 67.7714 14.7536C67.6205 14.3896 67.3994 14.0589 67.1207 13.7803C66.842 13.5017 66.5111 13.2808 66.147 13.13C65.7829 12.9793 65.3927 12.9018 64.9986 12.9019C64.2028 12.9021 63.4396 13.2185 62.877 13.7813C62.3144 14.3442 61.9984 15.1076 61.9986 15.9034C61.9988 16.6993 62.3151 17.4624 62.878 18.0251C63.4409 18.5877 64.2043 18.9036 65.0001 18.9034ZM68.6001 12.7534H70.3986C70.5181 12.7534 70.6327 12.7061 70.7173 12.6217C70.802 12.5374 70.8497 12.4229 70.8501 12.3034V10.5049C70.8501 10.3852 70.8025 10.2703 70.7179 10.1857C70.6332 10.101 70.5183 10.0534 70.3986 10.0534H68.6001C68.4804 10.0534 68.3655 10.101 68.2808 10.1857C68.1962 10.2703 68.1486 10.3852 68.1486 10.5049V12.3034C68.1501 12.5509 68.3526 12.7534 68.6001 12.7534ZM65.0001 1.50342C61.181 1.50342 57.5183 3.02056 54.8178 5.72108C52.1172 8.4216 50.6001 12.0843 50.6001 15.9034C50.6001 19.7225 52.1172 23.3852 54.8178 26.0858C57.5183 28.7863 61.181 30.3034 65.0001 30.3034C66.8911 30.3034 68.7637 29.931 70.5107 29.2073C72.2578 28.4836 73.8453 27.4229 75.1824 26.0858C76.5196 24.7486 77.5803 23.1611 78.304 21.4141C79.0276 19.667 79.4001 17.7945 79.4001 15.9034C79.4001 14.0124 79.0276 12.1399 78.304 10.3928C77.5803 8.64569 76.5196 7.05824 75.1824 5.72108C73.8453 4.38392 72.2578 3.32322 70.5107 2.59955C68.7637 1.87589 66.8911 1.50342 65.0001 1.50342ZM72.5001 21.7369C72.5001 22.6534 71.7501 23.4034 70.8336 23.4034H59.1666C58.2501 23.4034 57.5001 22.6534 57.5001 21.7369V10.0699C57.5001 9.15342 58.2501 8.40342 59.1666 8.40342H70.8336C71.7501 8.40342 72.5001 9.15342 72.5001 10.0699V21.7369Z" fill="white"/>
</g>
<defs>
<clipPath id="clip0_2701_1369">
<rect width="30" height="30" fill="white" transform="translate(0 0.90332)"/>
</clipPath>
<clipPath id="clip1_2701_1369">
<rect width="30" height="30" fill="white" transform="translate(100 0.90332)"/>
</clipPath>
<clipPath id="clip2_2701_1369">
<rect width="30" height="30" fill="white" transform="translate(50 0.90332)"/>
</clipPath>
</defs>
</svg>
