<svg width="35" height="46" viewBox="0 0 35 46" fill="none" xmlns="http://www.w3.org/2000/svg">
<path fill-rule="evenodd" clip-rule="evenodd" d="M17.3841 8.0842C8.77562 8.0842 1.73065 15.2875 1.73065 24.2577C1.73065 33.2272 8.77625 40.4299 17.3841 40.4299C25.9912 40.4299 33.0362 33.2273 33.0362 24.2577C33.0362 15.2875 25.9905 8.0842 17.3841 8.0842ZM0.17688 24.2577C0.17688 14.5245 7.84162 6.5647 17.3841 6.5647C26.9245 6.5647 34.5899 14.5245 34.5899 24.2577C34.5899 33.9903 26.9252 41.9494 17.3841 41.9494C7.84241 41.9494 0.17688 33.9904 0.17688 24.2577Z" fill="#CF4037"/>
<path fill-rule="evenodd" clip-rule="evenodd" d="M22.3444 20.545C21.5874 15.2976 17.164 12.7065 14.4009 11.1543C11.8366 9.71471 9.54073 9.06052 9.48534 9.22927C12.4019 11.5745 14.2745 15.2281 14.2745 19.3331C14.2745 26.0646 9.23537 31.5836 2.83353 32.0989L3.23831 32.7239C11.434 31.4475 33.3664 27.3758 33.3664 27.3758L33.4246 26.8973L20.1182 26.4417C21.5867 24.8896 22.5923 22.2548 22.3444 20.545V20.545Z" fill="#CF4037"/>
</svg>
