<svg width="17" height="18" viewBox="0 0 17 18" fill="none" xmlns="http://www.w3.org/2000/svg">
<path d="M16.1368 6.25931L11.1377 5.47509L8.903 0.584848C8.84197 0.450956 8.74155 0.342568 8.61751 0.276685C8.30642 0.110914 7.92839 0.249056 7.77285 0.584848L5.53813 5.47509L0.539058 6.25931C0.401234 6.28056 0.275223 6.3507 0.178747 6.45696C0.0621115 6.58636 -0.00215972 6.76045 5.54169e-05 6.94097C0.00227055 7.12149 0.0707908 7.29368 0.19056 7.4197L3.80745 11.2261L2.95295 16.6009C2.93291 16.7259 2.94572 16.8545 2.98995 16.972C3.03417 17.0896 3.10802 17.1914 3.20313 17.266C3.29825 17.3406 3.41081 17.3849 3.52806 17.3939C3.64532 17.4029 3.76257 17.3763 3.86652 17.3171L8.33792 14.7795L12.8093 17.3171C12.9314 17.3872 13.0732 17.4106 13.209 17.3851C13.5516 17.3213 13.782 16.9706 13.7229 16.6009L12.8684 11.2261L16.4853 7.4197C16.5837 7.31557 16.6487 7.17955 16.6684 7.03078C16.7216 6.65886 16.4813 6.31457 16.1368 6.25931Z" fill="#FDBF00"/>
</svg>
