<svg width="17" height="18" viewBox="0 0 17 18" fill="none" xmlns="http://www.w3.org/2000/svg">
<path d="M16.1059 6.25931L11.1164 5.47509L8.886 0.584848C8.82508 0.450956 8.72486 0.342568 8.60106 0.276685C8.29057 0.110914 7.91326 0.249056 7.75802 0.584848L5.52759 5.47509L0.538115 6.25931C0.400555 6.28056 0.274787 6.3507 0.178495 6.45696C0.0620838 6.58636 -0.00206402 6.76045 0.000146863 6.94097C0.00235775 7.12149 0.0707465 7.29368 0.190286 7.4197L3.80024 11.2261L2.94737 16.6009C2.92737 16.7259 2.94016 16.8545 2.9843 16.972C3.02843 17.0896 3.10215 17.1914 3.19708 17.266C3.29201 17.3406 3.40435 17.3849 3.52138 17.3939C3.63841 17.4029 3.75544 17.3763 3.85919 17.3171L8.32201 14.7795L12.7848 17.3171C12.9067 17.3872 13.0482 17.4106 13.1838 17.3851C13.5257 17.3213 13.7556 16.9706 13.6967 16.6009L12.8438 11.2261L16.4537 7.4197C16.552 7.31557 16.6168 7.17955 16.6365 7.03078C16.6896 6.65886 16.4498 6.31457 16.1059 6.25931Z" fill="#FDBF00"/>
</svg>
