<svg width="16" height="17" viewBox="0 0 16 17" fill="none" xmlns="http://www.w3.org/2000/svg">
<path d="M15.4744 5.96145L10.6806 5.23148L8.53756 0.679528C8.47903 0.554898 8.38274 0.454008 8.26379 0.392682C7.96547 0.238379 7.60295 0.366965 7.4538 0.679528L5.31081 5.23148L0.516931 5.96145C0.384765 5.98123 0.263926 6.04651 0.17141 6.14542C0.059562 6.26587 -0.00207107 6.42792 5.31422e-05 6.59595C0.00217735 6.76399 0.0678851 6.92427 0.182738 7.04157L3.65117 10.5846L2.83174 15.5876C2.81252 15.704 2.82481 15.8237 2.86722 15.9331C2.90962 16.0425 2.98045 16.1373 3.07165 16.2067C3.16286 16.2761 3.27081 16.3174 3.38325 16.3258C3.49569 16.3342 3.60813 16.3094 3.70781 16.2543L7.99568 13.8922L12.2835 16.2543C12.4006 16.3196 12.5366 16.3413 12.6668 16.3176C12.9954 16.2582 13.2163 15.9318 13.1596 15.5876L12.3402 10.5846L15.8086 7.04157C15.903 6.94464 15.9653 6.81803 15.9842 6.67955C16.0352 6.33336 15.8048 6.01288 15.4744 5.96145Z" fill="#FDBF00"/>
</svg>
