<svg width="19" height="17" viewBox="0 0 19 17" fill="none" xmlns="http://www.w3.org/2000/svg">
<path d="M18.1989 5.80984L12.561 5.07986L10.0407 0.527917C9.97187 0.403287 9.85862 0.302396 9.71873 0.241071C9.36788 0.0867674 8.94154 0.215354 8.76612 0.527917L6.24584 5.07986L0.607943 5.80984C0.452507 5.82962 0.310394 5.8949 0.201588 5.99381C0.0700486 6.11426 -0.0024357 6.27631 6.24985e-05 6.44434C0.0025607 6.61238 0.079837 6.77266 0.214911 6.88996L4.294 10.433L3.3303 15.436C3.3077 15.5524 3.32215 15.6721 3.37203 15.7815C3.4219 15.8909 3.50519 15.9857 3.61246 16.0551C3.71972 16.1245 3.84667 16.1658 3.97891 16.1742C4.11115 16.1826 4.24338 16.1578 4.36062 16.1027L9.40341 13.7406L14.4462 16.1027C14.5839 16.1679 14.7438 16.1897 14.897 16.166C15.2833 16.1066 15.5431 15.7802 15.4765 15.436L14.5128 10.433L18.5919 6.88996C18.7029 6.79303 18.7762 6.66642 18.7984 6.52794C18.8584 6.18175 18.5875 5.86127 18.1989 5.80984Z" fill="#FDBF00"/>
</svg>
