<svg width="17" height="18" viewBox="0 0 17 18" fill="none" xmlns="http://www.w3.org/2000/svg">
<path d="M16.1059 6.25931L11.1164 5.47509L8.88597 0.584848C8.82506 0.450956 8.72483 0.342568 8.60103 0.276685C8.29054 0.110914 7.91323 0.249056 7.75799 0.584848L5.52756 5.47509L0.538084 6.25931C0.400525 6.28056 0.274756 6.3507 0.178465 6.45696C0.0620533 6.58636 -0.00209454 6.76045 0.000116346 6.94097C0.00232723 7.12149 0.070716 7.29368 0.190255 7.4197L3.80021 11.2261L2.94734 16.6009C2.92734 16.7259 2.94013 16.8545 2.98427 16.972C3.0284 17.0896 3.10212 17.1914 3.19705 17.266C3.29198 17.3406 3.40433 17.3849 3.52135 17.3939C3.63838 17.4029 3.75541 17.3763 3.85916 17.3171L8.32198 14.7795L12.7848 17.3171C12.9066 17.3872 13.0481 17.4106 13.1837 17.3851C13.5257 17.3213 13.7556 16.9706 13.6966 16.6009L12.8438 11.2261L16.4537 7.4197C16.552 7.31557 16.6168 7.17955 16.6365 7.03078C16.6895 6.65886 16.4498 6.31457 16.1059 6.25931Z" fill="#FDBF00"/>
</svg>
