<svg width="19" height="17" viewBox="0 0 19 17" fill="none" xmlns="http://www.w3.org/2000/svg">
<path d="M18.1989 6.38576L12.561 5.65579L10.0407 1.10384C9.97187 0.979215 9.85862 0.878324 9.71873 0.816998C9.36788 0.662695 8.94154 0.791281 8.76612 1.10384L6.24584 5.65579L0.607943 6.38576C0.452507 6.40555 0.310394 6.47083 0.201588 6.56974C0.0700486 6.69019 -0.0024357 6.85224 6.24985e-05 7.02027C0.0025607 7.18831 0.079837 7.34859 0.214911 7.46589L4.294 11.0089L3.3303 16.0119C3.3077 16.1283 3.32215 16.248 3.37203 16.3574C3.4219 16.4669 3.50519 16.5617 3.61246 16.6311C3.71972 16.7005 3.84667 16.7417 3.97891 16.7501C4.11115 16.7585 4.24338 16.7337 4.36062 16.6786L9.40341 14.3166L14.4462 16.6786C14.5839 16.7439 14.7438 16.7656 14.897 16.7419C15.2833 16.6825 15.5431 16.3561 15.4765 16.0119L14.5128 11.0089L18.5919 7.46589C18.7029 7.36895 18.7762 7.24235 18.7984 7.10387C18.8584 6.75768 18.5875 6.4372 18.1989 6.38576Z" fill="#FDBF00"/>
</svg>
