<svg width="17" height="18" viewBox="0 0 17 18" fill="none" xmlns="http://www.w3.org/2000/svg">
<path d="M16.1058 6.25931L11.1163 5.47509L8.88589 0.584848C8.82497 0.450956 8.72475 0.342568 8.60095 0.276685C8.29046 0.110914 7.91315 0.249056 7.75791 0.584848L5.52748 5.47509L0.538022 6.25931C0.400463 6.28056 0.274694 6.3507 0.178403 6.45696C0.0619921 6.58636 -0.00215557 6.76045 5.53104e-05 6.94097C0.00226619 7.12149 0.0706548 7.29368 0.190194 7.4197L3.80014 11.2261L2.94727 16.6009C2.92727 16.7259 2.94006 16.8545 2.9842 16.972C3.02833 17.0896 3.10205 17.1914 3.19698 17.266C3.29191 17.3406 3.40426 17.3849 3.52128 17.3939C3.63831 17.4029 3.75534 17.3763 3.85909 17.3171L8.3219 14.7795L12.7847 17.3171C12.9065 17.3872 13.048 17.4106 13.1836 17.3851C13.5256 17.3213 13.7555 16.9706 13.6965 16.6009L12.8437 11.2261L16.4536 7.4197C16.5519 7.31557 16.6167 7.17955 16.6364 7.03078C16.6894 6.65886 16.4497 6.31457 16.1058 6.25931Z" fill="#FDBF00"/>
</svg>
