<svg width="16" height="17" viewBox="0 0 16 17" fill="none" xmlns="http://www.w3.org/2000/svg">
<path d="M15.4744 6.23415L10.6806 5.50418L8.53756 0.952233C8.47903 0.827603 8.38274 0.726713 8.26379 0.665387C7.96547 0.511084 7.60295 0.63967 7.4538 0.952233L5.31081 5.50418L0.516931 6.23415C0.384765 6.25394 0.263926 6.31922 0.17141 6.41813C0.059562 6.53858 -0.00207107 6.70062 5.31422e-05 6.86866C0.00217735 7.0367 0.0678851 7.19697 0.182738 7.31428L3.65117 10.8573L2.83174 15.8603C2.81252 15.9767 2.82481 16.0964 2.86722 16.2058C2.90962 16.3152 2.98045 16.41 3.07165 16.4794C3.16286 16.5489 3.27081 16.5901 3.38325 16.5985C3.49569 16.6069 3.60813 16.5821 3.70781 16.527L7.99568 14.1649L12.2835 16.527C12.4006 16.5923 12.5366 16.614 12.6668 16.5903C12.9954 16.5309 13.2163 16.2045 13.1596 15.8603L12.3402 10.8573L15.8086 7.31428C15.903 7.21734 15.9653 7.09073 15.9842 6.95226C16.0352 6.60606 15.8048 6.28559 15.4744 6.23415Z" fill="#FDBF00"/>
</svg>
