<svg width="25" height="25" viewBox="0 0 25 25" fill="none" xmlns="http://www.w3.org/2000/svg">
<g clip-path="url(#clip0_2701_1229)">
<path d="M12.873 22.4913C10.2497 22.4913 7.73382 21.4492 5.87884 19.5942C4.02386 17.7392 2.98175 15.2233 2.98175 12.6C2.98175 9.97666 4.02386 7.46077 5.87884 5.60579C7.73382 3.75081 10.2497 2.7087 12.873 2.7087C15.4964 2.7087 18.0123 3.75081 19.8673 5.60579C21.7222 7.46077 22.7643 9.97666 22.7643 12.6C22.7643 15.2233 21.7222 17.7392 19.8673 19.5942C18.0123 21.4492 15.4964 22.4913 12.873 22.4913ZM12.873 23.9043C15.8711 23.9043 18.7464 22.7134 20.8664 20.5934C22.9864 18.4734 24.1774 15.5981 24.1774 12.6C24.1774 9.6019 22.9864 6.7266 20.8664 4.60662C18.7464 2.48664 15.8711 1.29565 12.873 1.29565C9.87495 1.29565 6.99964 2.48664 4.87967 4.60662C2.75969 6.7266 1.5687 9.6019 1.5687 12.6C1.5687 15.5981 2.75969 18.4734 4.87967 20.5934C6.99964 22.7134 9.87495 23.9043 12.873 23.9043V23.9043Z" fill="#1262AF"/>
<path d="M10.3496 7.79989C10.4829 7.73125 10.6326 7.70071 10.7821 7.71164C10.9316 7.72257 11.0753 7.77454 11.1972 7.86183L16.9018 11.9366C17.0075 12.012 17.0936 12.1115 17.153 12.2269C17.2124 12.3423 17.2434 12.4702 17.2434 12.6C17.2434 12.7298 17.2124 12.8577 17.153 12.973C17.0936 13.0884 17.0075 13.188 16.9018 13.2633L11.1972 17.3381C11.0753 17.4253 10.9317 17.4773 10.7823 17.4882C10.6328 17.4991 10.4832 17.4686 10.35 17.4001C10.2167 17.3315 10.105 17.2275 10.027 17.0995C9.94898 16.9716 9.90778 16.8246 9.9079 16.6747V8.5252C9.90774 8.37538 9.94889 8.22842 10.0268 8.10046C10.1047 7.97251 10.2164 7.86851 10.3496 7.79989V7.79989Z" fill="#1262AF"/>
</g>
<defs>
<clipPath id="clip0_2701_1229">
<rect width="24" height="24" fill="white" transform="translate(0.873047 0.600098)"/>
</clipPath>
</defs>
</svg>
