<svg width="25" height="26" viewBox="0 0 25 26" fill="none" xmlns="http://www.w3.org/2000/svg">
<path d="M12.5 23.1044C9.76736 23.1044 7.14664 22.0189 5.21437 20.0866C3.2821 18.1544 2.19656 15.5336 2.19656 12.801C2.19656 10.0684 3.2821 7.44763 5.21437 5.51536C7.14664 3.58309 9.76736 2.49755 12.5 2.49755C15.2326 2.49755 17.8534 3.58309 19.7856 5.51536C21.7179 7.44763 22.8034 10.0684 22.8034 12.801C22.8034 15.5336 21.7179 18.1544 19.7856 20.0866C17.8534 22.0189 15.2326 23.1044 12.5 23.1044ZM12.5 24.5763C15.623 24.5763 18.6181 23.3357 20.8264 21.1274C23.0347 18.9191 24.2754 15.924 24.2754 12.801C24.2754 9.67797 23.0347 6.68286 20.8264 4.47456C18.6181 2.26625 15.623 1.02563 12.5 1.02563C9.37698 1.02563 6.38187 2.26625 4.17356 4.47456C1.96525 6.68286 0.72464 9.67797 0.72464 12.801C0.72464 15.924 1.96525 18.9191 4.17356 21.1274C6.38187 23.3357 9.37698 24.5763 12.5 24.5763V24.5763Z" fill="#1262AF"/>
<path d="M9.87143 7.80073C10.0103 7.72923 10.1662 7.69742 10.3219 7.7088C10.4777 7.72018 10.6273 7.77432 10.7543 7.86525L16.6967 12.1098C16.8067 12.1883 16.8964 12.292 16.9583 12.4122C17.0202 12.5324 17.0525 12.6656 17.0525 12.8008C17.0525 12.936 17.0202 13.0692 16.9583 13.1894C16.8964 13.3096 16.8067 13.4133 16.6967 13.4918L10.7543 17.7364C10.6274 17.8272 10.4778 17.8813 10.3221 17.8927C10.1664 17.9041 10.0106 17.8723 9.87183 17.8009C9.73302 17.7295 9.6166 17.6212 9.53535 17.4879C9.45411 17.3546 9.41119 17.2015 9.41132 17.0454V8.55626C9.41115 8.4002 9.45401 8.24711 9.53518 8.11383C9.61635 7.98054 9.7327 7.8722 9.87143 7.80073V7.80073Z" fill="#1262AF"/>
</svg>
